<mxfile host="app.diagrams.net" modified="2023-05-06T14:32:25.041Z" agent="Mozilla/5.0 (Macintosh; Intel Mac OS X 10_15_7) AppleWebKit/537.36 (KHTML, like Gecko) Chrome/112.0.0.0 Safari/537.36" version="21.2.9" etag="8QdYp-wGjTn4fKQlvACM" type="github">
  <diagram name="第 1 页" id="u8vFrNixLfYszRNiF5gG">
    <mxGraphModel>
      <root>
        <mxCell id="0" />
        <mxCell id="1" parent="0" />
      </root>
    </mxGraphModel>
  </diagram>
</mxfile>
